<svg width="18" height="22" viewBox="0 0 18 22" fill="none" xmlns="http://www.w3.org/2000/svg">
<path d="M16.2357 21.1645H5.65004V19.1067H16.2357V6.75952H18V19.1067C18 20.2416 17.2087 21.1645 16.2357 21.1645Z" fill="#DDE2FF"/>
<path d="M2.1222 0.585938H12.7079C13.6809 0.585938 14.4722 1.50889 14.4722 2.6438V14.991C14.4722 16.1259 13.6809 17.0488 12.7079 17.0488H2.1222C1.1492 17.0488 0.357922 16.1259 0.357922 14.991V2.6438C0.357922 1.50889 1.1492 0.585938 2.1222 0.585938ZM3.88648 9.84631H6.5329V12.9331H8.29718V9.84631H10.9436V7.78845H8.29718V4.70166H6.5329V7.78845H3.88648V9.84631Z" fill="#DDE2FF"/>
</svg>
