<svg width="19" height="19" viewBox="0 0 19 21" fill="none" xmlns="http://www.w3.org/2000/svg">
<path d="M16.15 2.37673H14.25V1.3567C14.25 1.08617 14.1499 0.826723 13.9718 0.63543C13.7936 0.444137 13.552 0.33667 13.3 0.33667C13.048 0.33667 12.8064 0.444137 12.6282 0.63543C12.4501 0.826723 12.35 1.08617 12.35 1.3567V2.37673H6.65V1.3567C6.65 1.08617 6.54991 0.826723 6.37175 0.63543C6.19359 0.444137 5.95196 0.33667 5.7 0.33667C5.44804 0.33667 5.20641 0.444137 5.02825 0.63543C4.85009 0.826723 4.75 1.08617 4.75 1.3567V2.37673H2.85C2.09413 2.37673 1.36922 2.69914 0.834746 3.27301C0.300267 3.84689 0 4.62524 0 5.43683V17.6772C0 18.4888 0.300267 19.2671 0.834746 19.841C1.36922 20.4149 2.09413 20.7373 2.85 20.7373H16.15C16.9059 20.7373 17.6308 20.4149 18.1653 19.841C18.6997 19.2671 19 18.4888 19 17.6772V5.43683C19 4.62524 18.6997 3.84689 18.1653 3.27301C17.6308 2.69914 16.9059 2.37673 16.15 2.37673ZM17.1 17.6772C17.1 17.9477 16.9999 18.2072 16.8218 18.3985C16.6436 18.5898 16.402 18.6972 16.15 18.6972H2.85C2.59804 18.6972 2.35641 18.5898 2.17825 18.3985C2.00009 18.2072 1.9 17.9477 1.9 17.6772V10.537H17.1V17.6772ZM17.1 8.49692H1.9V5.43683C1.9 5.1663 2.00009 4.90685 2.17825 4.71556C2.35641 4.52426 2.59804 4.4168 2.85 4.4168H4.75V5.43683C4.75 5.70736 4.85009 5.96681 5.02825 6.1581C5.20641 6.34939 5.44804 6.45686 5.7 6.45686C5.95196 6.45686 6.19359 6.34939 6.37175 6.1581C6.54991 5.96681 6.65 5.70736 6.65 5.43683V4.4168H12.35V5.43683C12.35 5.70736 12.4501 5.96681 12.6282 6.1581C12.8064 6.34939 13.048 6.45686 13.3 6.45686C13.552 6.45686 13.7936 6.34939 13.9718 6.1581C14.1499 5.96681 14.25 5.70736 14.25 5.43683V4.4168H16.15C16.402 4.4168 16.6436 4.52426 16.8218 4.71556C16.9999 4.90685 17.1 5.1663 17.1 5.43683V8.49692Z" fill="#00C78A"/>
</svg>
