<svg width="139" height="104" viewBox="0 0 139 104" fill="none" xmlns="http://www.w3.org/2000/svg">
<g filter="url(#filter0_dd)">
<path d="M72.4773 76.8H84.3864V68.8H76.7943V56.8H84.3864V48.8H76.7943V36.8H84.3864V28.8H72.4773V76.8Z" fill="#007664"/>
<path d="M102.25 36.8V28.8H90.3409V76.8H102.25V68.8H94.6579V56.8H102.25V48.8H94.6579V36.8H102.25Z" fill="#007664"/>
<path d="M57.442 76.8V56.8H59.0795L62.8011 76.8H67.267L63.3966 55.7333C66.0761 53.6 68.0114 48.5333 68.0114 42.6667C68.0114 34.9333 64.7364 28.8 60.5682 28.8H53.125V76.8H57.442ZM57.442 36.8H60.5682C62.3545 36.8 63.6943 39.4667 63.6943 42.6667C63.6943 45.8667 62.2057 48.5333 60.5682 48.5333H57.442V36.8Z" fill="#007664"/>
<path d="M41.067 76.8V56.8H48.6591V48.8H41.067V36.8H48.6591V28.8H36.75V76.8H41.067Z" fill="#007664"/>
<rect x="4.5" y="0.5" width="130" height="95" stroke="#FFFBFB"/>
</g>
<defs>
<filter id="filter0_dd" x="0" y="0" width="139" height="104" filterUnits="userSpaceOnUse" color-interpolation-filters="sRGB">
<feFlood flood-opacity="0" result="BackgroundImageFix"/>
<feColorMatrix in="SourceAlpha" type="matrix" values="0 0 0 0 0 0 0 0 0 0 0 0 0 0 0 0 0 0 127 0"/>
<feOffset dy="4"/>
<feGaussianBlur stdDeviation="2"/>
<feColorMatrix type="matrix" values="0 0 0 0 0 0 0 0 0 0 0 0 0 0 0 0 0 0 0.25 0"/>
<feBlend mode="normal" in2="BackgroundImageFix" result="effect1_dropShadow"/>
<feColorMatrix in="SourceAlpha" type="matrix" values="0 0 0 0 0 0 0 0 0 0 0 0 0 0 0 0 0 0 127 0"/>
<feOffset dy="4"/>
<feGaussianBlur stdDeviation="2"/>
<feColorMatrix type="matrix" values="0 0 0 0 0 0 0 0 0 0 0 0 0 0 0 0 0 0 0.25 0"/>
<feBlend mode="normal" in2="effect1_dropShadow" result="effect2_dropShadow"/>
<feBlend mode="normal" in="SourceGraphic" in2="effect2_dropShadow" result="shape"/>
</filter>
</defs>
</svg>
