<svg width="18" height="20" viewBox="0 0 18 20" fill="none" xmlns="http://www.w3.org/2000/svg">
<path d="M2.21917 0.799194C1.63061 0.799194 1.06616 1.04311 0.64998 1.47727C0.233805 1.91144 0 2.50029 0 3.11429V17.0049C0 17.6189 0.233805 18.2077 0.64998 18.6419C1.06616 19.0761 1.63061 19.32 2.21917 19.32H15.5342C16.1228 19.32 16.6872 19.0761 17.1034 18.6419C17.5196 18.2077 17.7534 17.6189 17.7534 17.0049V3.11429C17.7534 2.50029 17.5196 1.91144 17.1034 1.47727C16.6872 1.04311 16.1228 0.799194 15.5342 0.799194H2.21917ZM5.67121 6.20109C5.67121 6.47398 5.5673 6.73569 5.38233 6.92866C5.19737 7.12162 4.9465 7.23002 4.68492 7.23002C4.42333 7.23002 4.17246 7.12162 3.9875 6.92866C3.80253 6.73569 3.69862 6.47398 3.69862 6.20109C3.69862 5.9282 3.80253 5.66649 3.9875 5.47353C4.17246 5.28056 4.42333 5.17216 4.68492 5.17216C4.9465 5.17216 5.19737 5.28056 5.38233 5.47353C5.5673 5.66649 5.67121 5.9282 5.67121 6.20109ZM7.39724 6.20109C7.39724 5.99642 7.47517 5.80014 7.6139 5.65542C7.75262 5.5107 7.94077 5.42939 8.13696 5.42939H13.5616C13.7578 5.42939 13.9459 5.5107 14.0847 5.65542C14.2234 5.80014 14.3013 5.99642 14.3013 6.20109C14.3013 6.40576 14.2234 6.60204 14.0847 6.74677C13.9459 6.89149 13.7578 6.97279 13.5616 6.97279H8.13696C7.94077 6.97279 7.75262 6.89149 7.6139 6.74677C7.47517 6.60204 7.39724 6.40576 7.39724 6.20109ZM7.39724 10.0596C7.39724 9.85492 7.47517 9.65864 7.6139 9.51392C7.75262 9.36919 7.94077 9.28789 8.13696 9.28789H13.5616C13.7578 9.28789 13.9459 9.36919 14.0847 9.51392C14.2234 9.65864 14.3013 9.85492 14.3013 10.0596C14.3013 10.2643 14.2234 10.4605 14.0847 10.6053C13.9459 10.75 13.7578 10.8313 13.5616 10.8313H8.13696C7.94077 10.8313 7.75262 10.75 7.6139 10.6053C7.47517 10.4605 7.39724 10.2643 7.39724 10.0596ZM8.13696 13.1464H13.5616C13.7578 13.1464 13.9459 13.2277 14.0847 13.3724C14.2234 13.5171 14.3013 13.7134 14.3013 13.9181C14.3013 14.1228 14.2234 14.319 14.0847 14.4638C13.9459 14.6085 13.7578 14.6898 13.5616 14.6898H8.13696C7.94077 14.6898 7.75262 14.6085 7.6139 14.4638C7.47517 14.319 7.39724 14.1228 7.39724 13.9181C7.39724 13.7134 7.47517 13.5171 7.6139 13.3724C7.75262 13.2277 7.94077 13.1464 8.13696 13.1464ZM4.68492 11.0885C4.42333 11.0885 4.17246 10.9801 3.9875 10.7872C3.80253 10.5942 3.69862 10.3325 3.69862 10.0596C3.69862 9.7867 3.80253 9.52499 3.9875 9.33202C4.17246 9.13906 4.42333 9.03066 4.68492 9.03066C4.9465 9.03066 5.19737 9.13906 5.38233 9.33202C5.5673 9.52499 5.67121 9.7867 5.67121 10.0596C5.67121 10.3325 5.5673 10.5942 5.38233 10.7872C5.19737 10.9801 4.9465 11.0885 4.68492 11.0885ZM5.67121 13.9181C5.67121 14.191 5.5673 14.4527 5.38233 14.6457C5.19737 14.8386 4.9465 14.947 4.68492 14.947C4.42333 14.947 4.17246 14.8386 3.9875 14.6457C3.80253 14.4527 3.69862 14.191 3.69862 13.9181C3.69862 13.6452 3.80253 13.3835 3.9875 13.1905C4.17246 12.9976 4.42333 12.8892 4.68492 12.8892C4.9465 12.8892 5.19737 12.9976 5.38233 13.1905C5.5673 13.3835 5.67121 13.6452 5.67121 13.9181Z" fill="#DDE2FF"/>
</svg>
