<svg width="22" height="25" viewBox="0 0 22 25" fill="none" xmlns="http://www.w3.org/2000/svg">
<path d="M21.6781 11.4746L11.8025 0.362828C11.5964 0.130966 11.3166 0.000464253 11.0247 1.23627e-06C10.7329 -0.000461781 10.4528 0.129152 10.2461 0.360359L0.32316 11.4721C0.220723 11.5868 0.13945 11.7231 0.083997 11.8731C0.028544 12.023 0 12.1839 0 12.3462C0 12.5086 0.028544 12.6694 0.083997 12.8194C0.13945 12.9694 0.220723 13.1057 0.32316 13.2204L10.2461 24.3321C10.6751 24.8124 11.3746 24.8112 11.8025 24.3297L21.6781 13.2179C21.7802 13.1035 21.8611 12.9676 21.9163 12.818C21.9716 12.6685 22 12.5082 22 12.3462C22 12.1843 21.9716 12.024 21.9163 11.8745C21.8611 11.7249 21.7802 11.589 21.6781 11.4746ZM14.3006 17.2848H12.1006V12.3462H8.80069V14.8155L5.50076 11.1116L8.80069 7.40769V9.87697H14.3006V17.2848Z" fill="#00C78A"/>
</svg>
