<svg width="23" height="24" viewBox="0 0 23 24" fill="none" xmlns="http://www.w3.org/2000/svg">
<path d="M14.6948 2.66669H4.4726C4.13371 2.66669 3.80871 2.80716 3.56908 3.05721C3.32945 3.30726 3.19482 3.6464 3.19482 4.00002V20C3.19482 20.3536 3.32945 20.6928 3.56908 20.9428C3.80871 21.1929 4.13371 21.3334 4.4726 21.3334H14.6948C15.0337 21.3334 15.3587 21.1929 15.5983 20.9428C15.838 20.6928 15.9726 20.3536 15.9726 20V16H9.98621C9.81677 16 9.65426 15.9298 9.53445 15.8048C9.41463 15.6797 9.34732 15.5102 9.34732 15.3334C9.34732 15.1565 9.41463 14.987 9.53445 14.8619C9.65426 14.7369 9.81677 14.6667 9.98621 14.6667H15.9726V4.00002C15.9726 3.6464 15.838 3.30726 15.5983 3.05721C15.3587 2.80716 15.0337 2.66669 14.6948 2.66669Z" fill="#DDE2FF"/>
<path d="M17.9911 11.52C17.8688 11.4108 17.7116 11.3537 17.5508 11.3602C17.39 11.3667 17.2375 11.4362 17.1237 11.5549C17.0099 11.6737 16.9433 11.8328 16.9371 12.0006C16.9309 12.1684 16.9856 12.3325 17.0902 12.46L19.2497 14.6667H15.9722V16H19.2497L17.0902 18.3067C17.0233 18.3664 16.969 18.44 16.9307 18.5227C16.8923 18.6054 16.8708 18.6955 16.8674 18.7873C16.864 18.8791 16.8788 18.9707 16.9109 19.0562C16.943 19.1418 16.9918 19.2195 17.054 19.2844C17.1163 19.3494 17.1908 19.4002 17.2727 19.4337C17.3547 19.4673 17.4425 19.4827 17.5305 19.4792C17.6184 19.4756 17.7048 19.4532 17.784 19.4131C17.8633 19.3731 17.9338 19.3164 17.9911 19.2467L21.7222 15.38L17.9911 11.52Z" fill="#DDE2FF"/>
</svg>
