<svg width="19" height="19" viewBox="0 0 19 21" fill="none" xmlns="http://www.w3.org/2000/svg">
<path d="M16.206 18.6347H1.80067C0.810302 18.6347 0 17.8166 0 16.8167V7.31754C0 6.72669 0.270101 6.18128 0.765285 5.81767L9.00336 0L17.2414 5.81767C17.7366 6.13583 18.0067 6.72669 18.0067 7.31754V16.8167C18.0067 17.8166 17.1964 18.6347 16.206 18.6347Z" fill="#00927C"/>
<path d="M4.50146 0.455048H13.5048V14.5445H4.50146V0.455048Z" fill="#AED581"/>
<path d="M4.05151 0V14.9986H13.9552V0H4.05151ZM13.0549 14.0896H4.95185V0.909006H13.0549V14.0896Z" fill="#00C78A"/>
<path d="M13.5045 1.36345C13.5045 2.13607 13.3695 2.72689 12.6042 2.72689C11.8389 2.72689 11.2537 2.13607 11.2537 1.36345C11.2537 0.590828 11.8389 0.454483 12.6042 0.454483C13.3695 0.454483 13.5045 0.590828 13.5045 1.36345Z" fill="#00C78A"/>
<path d="M5.40156 0.454483C6.16685 0.454483 6.75208 0.590828 6.75208 1.36345C6.75208 2.13607 6.16685 2.72689 5.40156 2.72689C4.63627 2.72689 4.50122 2.13607 4.50122 1.36345C4.50122 0.590828 4.63627 0.454483 5.40156 0.454483Z" fill="#00C78A"/>
<path d="M9.00357 4.5451C9.50079 4.5451 9.90387 4.13812 9.90387 3.63607C9.90387 3.13402 9.50079 2.72704 9.00357 2.72704C8.50635 2.72704 8.10327 3.13402 8.10327 3.63607C8.10327 4.13812 8.50635 4.5451 9.00357 4.5451Z" fill="#00C78A"/>
<path d="M9.00253 11.8172C10.4943 11.8172 11.7036 10.5963 11.7036 9.09019C11.7036 7.58409 10.4943 6.36316 9.00253 6.36316C7.5108 6.36316 6.30151 7.58409 6.30151 9.09019C6.30151 10.5963 7.5108 11.8172 9.00253 11.8172Z" fill="#00C78A"/>
<path d="M16.206 18.6347H1.80067C0.810302 18.6347 0 17.8166 0 16.8167V7.72661L9.00336 13.6352L18.0067 7.72661V16.8167C18.0067 17.8166 17.1964 18.6347 16.206 18.6347Z" fill="#00C78A"/>
</svg>
