<svg width="20" height="24" viewBox="0 0 20 24" fill="none" xmlns="http://www.w3.org/2000/svg">
<g clip-path="url(#clip0)">
<path d="M2.67847 4.63087C2.67847 3.81404 2.96067 3.03066 3.463 2.45307C3.96533 1.87548 4.64664 1.55099 5.35704 1.55099C6.06744 1.55099 6.74874 1.87548 7.25107 2.45307C7.7534 3.03066 8.03561 3.81404 8.03561 4.63087C8.03561 5.4477 7.7534 6.23108 7.25107 6.80867C6.74874 7.38626 6.06744 7.71074 5.35704 7.71074C4.64664 7.71074 3.96533 7.38626 3.463 6.80867C2.96067 6.23108 2.67847 5.4477 2.67847 4.63087Z" fill="#00C78A"/>
<path d="M11.7577 7.0693L11.814 7.11858C12.3822 7.6029 13.094 7.80911 13.794 7.69222C14.494 7.57533 15.1254 7.14482 15.5503 6.49465C15.9753 5.84448 16.1593 5.02743 16.0623 4.2218C15.9653 3.41618 15.595 2.6874 15.0324 2.19449C14.4697 1.70159 13.7604 1.48459 13.0591 1.59085C12.3578 1.6971 11.7216 2.11799 11.2892 2.76166C10.8568 3.40532 10.6634 4.21951 10.7512 5.02654C10.839 5.83356 11.2008 6.5679 11.7577 7.0693Z" fill="#00C78A"/>
<path d="M7.05561 9.25066C7.22383 8.88441 7.45457 8.56093 7.73402 8.29958C8.01348 8.03823 8.33591 7.84438 8.68202 7.72962C9.02814 7.61486 9.39083 7.58155 9.74841 7.63169C10.106 7.68182 10.4511 7.81437 10.7631 8.0214C11.0751 8.22844 11.3475 8.5057 11.5642 8.83661C11.7808 9.16752 11.9372 9.54527 12.0239 9.94727C12.1107 10.3493 12.126 10.7673 12.069 11.1762C12.012 11.5852 11.8839 11.9767 11.6922 12.3275C11.3235 13.0021 10.7418 13.4863 10.0692 13.6782C9.39659 13.87 8.6855 13.7547 8.08529 13.3564C7.48508 12.9581 7.04249 12.3079 6.85048 11.5423C6.65847 10.7766 6.732 9.95526 7.05561 9.25066Z" fill="#00C78A"/>
<path d="M2.00893 9.25067H5.58482C5.4375 9.73267 5.35714 10.2516 5.35714 10.7906C5.35714 11.9733 5.7442 13.0543 6.38036 13.8705H6.02679C5.3363 13.8704 4.66266 14.1156 4.09806 14.5727C3.53346 15.0297 3.10551 15.6762 2.87277 16.4237C2.42321 16.2161 2.0023 15.9344 1.62321 15.5875C0.616071 14.6559 0 13.2791 0 11.5606C0 10.948 0.211654 10.3604 0.588402 9.92723C0.965149 9.49404 1.47613 9.25067 2.00893 9.25067Z" fill="#00C78A"/>
<path d="M12.7232 13.8705C14.1763 13.8705 15.4138 14.9346 15.8759 16.4237C16.3312 16.2096 16.7531 15.9309 17.1268 15.5875C18.1339 14.6559 18.75 13.2791 18.75 11.5606C18.75 10.948 18.5383 10.3604 18.1616 9.92723C17.7848 9.49404 17.2739 9.25067 16.7411 9.25067H13.1652C13.3125 9.73267 13.3928 10.2516 13.3928 10.7906C13.3941 11.9273 13.0296 13.0243 12.3696 13.8705H12.7232Z" fill="#00C78A"/>
<path d="M14.5808 16.8395C14.6785 17.1105 14.7321 17.4093 14.7321 17.7203C14.7321 19.4389 14.1174 20.8156 13.1089 21.7473C12.1165 22.6635 10.7852 23.1101 9.37497 23.1101C7.9647 23.1101 6.63345 22.6635 5.64104 21.7473C4.6339 20.8156 4.01783 19.4389 4.01783 17.7203C4.01712 17.4168 4.0686 17.116 4.16931 16.8354C4.27002 16.5548 4.41797 16.2998 4.60465 16.0852C4.79134 15.8705 5.01309 15.7004 5.25714 15.5846C5.50119 15.4688 5.76274 15.4096 6.02676 15.4104H12.7232C13.1211 15.4103 13.5101 15.5461 13.8408 15.8005C14.1715 16.0549 14.429 16.4165 14.5808 16.8395Z" fill="#00C78A"/>
</g>
<defs>
<clipPath id="clip0">
<rect width="20" height="22.9964" fill="white" transform="translate(0 0.113724)"/>
</clipPath>
</defs>
</svg>
