<svg width="30" height="30" viewBox="0 0 30 30" fill="none" xmlns="http://www.w3.org/2000/svg">
<g clip-path="url(#clip0)">
<path d="M29.5832 24.9462L25.3535 29.1419C24.7291 29.7822 23.9016 29.9991 23.0956 30.0001C19.5313 29.8933 16.1623 28.1425 13.3961 26.3447C8.8555 23.0415 4.68935 18.9456 2.0746 13.9959C1.07175 11.9203 -0.104946 9.27207 0.0074795 6.95534C0.0175045 6.08384 0.252354 5.22852 0.86613 4.66677L5.09578 0.439244C5.97408 -0.307831 6.82345 -0.0495315 7.38551 0.820668L10.7883 7.27322C11.1464 8.03764 10.941 8.85669 10.4066 9.40292L8.84833 10.9604C8.75213 11.0922 8.69088 11.2422 8.68933 11.4054C9.28688 13.7185 11.0972 15.8504 12.6964 17.3176C14.2955 18.7848 16.0145 20.7725 18.2458 21.2431C18.5216 21.32 18.8594 21.3471 19.0567 21.1636L20.8695 19.3201C21.4944 18.8464 22.3966 18.6149 23.0638 19.0022H23.0956L29.2333 22.6258C30.1343 23.1906 30.2283 24.2821 29.5832 24.9462Z" fill="#4D5352"/>
</g>
<defs>
<clipPath id="clip0">
<rect width="30" height="30" fill="white"/>
</clipPath>
</defs>
</svg>
