<svg width="109" height="104" viewBox="0 0 109 104" fill="none" xmlns="http://www.w3.org/2000/svg">
<g filter="url(#filter0_dd)">
<path d="M54.822 14.4015C56.0442 14.4015 57.2477 14.473 58.3672 14.6413C59.4698 14.7715 60.5577 14.9883 61.6185 15.289C62.6821 15.5792 63.7223 15.9409 64.7626 16.3951C65.7748 16.8284 66.815 17.3583 67.8553 17.9345C69.6139 18.944 71.3445 19.7599 73.1078 20.4118C76.579 21.6645 80.2496 22.4099 83.9813 22.62C85.8751 22.7419 87.8203 22.8134 89.8448 22.8134V39.6372C89.8448 42.8338 89.3923 45.862 88.4874 48.7473C87.6181 51.5914 86.3829 54.3341 84.8069 56.9195C83.2376 59.5012 81.3808 61.9322 79.2652 64.1747C77.1172 66.4683 74.7914 68.6215 72.3054 70.6183C69.7866 72.6209 67.1335 74.482 64.3614 76.1911C61.5905 77.924 58.7917 79.5349 55.9929 80.9986L54.8733 81.6L53.7538 80.9986C50.8766 79.4966 48.0662 77.8929 45.3293 76.1911C42.5416 74.5013 39.8872 72.6392 37.3852 70.6183C34.9008 68.6215 32.5765 66.4682 30.4301 64.1747C28.3202 61.9227 26.4551 59.4931 24.8604 56.9195C23.3114 54.3226 22.0775 51.5827 21.18 48.7473C20.2693 45.781 19.8203 42.715 19.8459 39.6372V22.8134C21.875 22.8134 23.8202 22.7419 25.7141 22.62C27.5784 22.5032 29.4306 22.2628 31.2558 21.9007C33.0424 21.539 34.829 21.0595 36.5876 20.4118C38.4124 19.7478 40.162 18.9266 41.8121 17.9598C43.8646 16.7569 45.945 15.8694 47.9975 15.2848C50.208 14.6738 52.5102 14.3758 54.822 14.4015ZM85.1521 26.9479C81.621 26.7934 78.1228 26.2611 74.7311 25.3622C71.3573 24.4548 68.1438 23.1194 65.1871 21.396C63.6534 20.4884 61.9879 19.7764 60.2378 19.2804C58.4896 18.804 56.6716 18.5687 54.8453 18.5822C53.0056 18.5715 51.1742 18.8068 49.4109 19.2804C47.6582 19.7603 45.9948 20.4733 44.4756 21.396C41.5138 23.1288 38.292 24.4701 34.9083 25.3791C31.601 26.2455 28.1397 26.7754 24.5106 26.9689V39.6583C24.5106 42.4468 24.9118 45.1134 25.7141 47.6832C26.5315 50.2307 27.6578 52.6892 29.0727 55.0142C30.5045 57.3634 32.1922 59.5782 34.1106 61.6259C36.0558 63.6911 38.1316 65.6132 40.3707 67.4386C42.6097 69.2682 44.9561 70.9505 47.4098 72.5109C49.8867 74.0756 52.3684 75.493 54.8453 76.7884C57.3816 75.4571 59.8546 74.03 62.2576 72.5109C64.7275 70.9554 67.0863 69.2613 69.32 67.4386C71.5591 65.6132 73.6395 63.6911 75.5847 61.6259C77.5034 59.5783 79.191 57.3635 80.6227 55.0142C82.0313 52.6921 83.1409 50.2325 83.9299 47.6832C84.7567 45.0739 85.1682 42.3719 85.1521 39.6583V26.9479Z" fill="#007664"/>
<path fill-rule="evenodd" clip-rule="evenodd" d="M72.2123 34.2073L70.1599 32.6175L68.266 32.7647L47.9277 54.4169L41.0006 45.5003L39.1347 45.2143L36.9749 46.6065L36.6531 48.2889L45.5581 59.7543L46.5703 60.259L48.7021 60.3768L49.7936 59.9478L72.3476 35.9108L72.2123 34.2073Z" fill="#007664"/>
<rect x="5.34482" y="0.5" width="99" height="95" stroke="#FFFBFB"/>
</g>
<defs>
<filter id="filter0_dd" x="0.844818" y="0" width="108" height="104" filterUnits="userSpaceOnUse" color-interpolation-filters="sRGB">
<feFlood flood-opacity="0" result="BackgroundImageFix"/>
<feColorMatrix in="SourceAlpha" type="matrix" values="0 0 0 0 0 0 0 0 0 0 0 0 0 0 0 0 0 0 127 0"/>
<feOffset dy="4"/>
<feGaussianBlur stdDeviation="2"/>
<feColorMatrix type="matrix" values="0 0 0 0 0 0 0 0 0 0 0 0 0 0 0 0 0 0 0.25 0"/>
<feBlend mode="normal" in2="BackgroundImageFix" result="effect1_dropShadow"/>
<feColorMatrix in="SourceAlpha" type="matrix" values="0 0 0 0 0 0 0 0 0 0 0 0 0 0 0 0 0 0 127 0"/>
<feOffset dy="4"/>
<feGaussianBlur stdDeviation="2"/>
<feColorMatrix type="matrix" values="0 0 0 0 0 0 0 0 0 0 0 0 0 0 0 0 0 0 0.25 0"/>
<feBlend mode="normal" in2="effect1_dropShadow" result="effect2_dropShadow"/>
<feBlend mode="normal" in="SourceGraphic" in2="effect2_dropShadow" result="shape"/>
</filter>
</defs>
</svg>
